<svg xmlns="http://www.w3.org/2000/svg" xmlns:xlink="http://www.w3.org/1999/xlink" version="1.1" x="0px" y="0px" viewBox="0 0 100 125" style="enable-background:new 0 0 100 100;" xml:space="preserve"><g><path d="M89.5,18.1l-11.6,0c0,0,0,0,0,0c-2,0-3.8,1.5-4.1,3.5l-0.9,5.5l-60.4,0c-1.1,0-2.2,0.5-2.8,1.4c-0.7,0.9-0.8,2.1-0.5,3.1   l10,29.9c0.8,2.5,3.2,4.2,5.8,4.2c0,0,0,0,0,0l38.7,0c0.8,0,1.5-0.7,1.5-1.5c0-0.8-0.7-1.5-1.5-1.5l-38.7,0h0c-1.3,0-2.5-0.9-3-2.1   l-1.3-3.8l47.3,0c1.7,0,3.2-1.2,3.4-2.9l5.3-31.8c0.1-0.6,0.6-1,1.1-1l11.6,0c0,0,0,0,0,0c0.8,0,1.5-0.7,1.5-1.5   C91,18.8,90.3,18.1,89.5,18.1z M12.1,30.3c0.1-0.1,0.2-0.2,0.4-0.2l59.9,0l-1,5.9l-57.6,0L12,30.7C12,30.5,12,30.3,12.1,30.3z    M14.8,39l56.1,0l-1,5.9l-53.1,0L14.8,39z M68,53.8l-48.3,0l-2-5.9l51.6,0l-0.9,5.5C68.4,53.7,68.2,53.8,68,53.8z"/><circle cx="31.4" cy="75.8" r="6.1"/><circle cx="55.1" cy="75.8" r="6.1"/></g><text x="0" y="115" fill="#000000" font-size="5px" font-weight="bold" font-family="'Helvetica Neue', Helvetica, Arial-Unicode, Arial, Sans-serif">Created by Lara </text><text x="0" y="120" fill="#000000" font-size="5px" font-weight="bold" font-family="'Helvetica Neue', Helvetica, Arial-Unicode, Arial, Sans-serif">from the Noun Project</text></svg>